#!OML:ASF I:\Actors\actors\Patient Classification 2\Patient 1\Session 1\actor1.ASF
:FULLY-SPECIFIED
:DEGREES
490
root -0.626825 18.5726 6.993 1.50721 -2.92043 -6.25635
lowerback 5.20892 0.780552 2.31217
upperback -4.51706 1.27451 0.380494
thorax -7.61808 0.511747 -1.04646
lowerneck -12.7972 -0.57672 3.20233
upperneck 14.6038 -1.7755 2.08786
head 6.55474 -0.502364 -0.0206277
rclavicle -1.05853e-014 3.18055e-015
rhumerus -38.8368 9.31843 -92.1842
rradius 120.413
rwrist 18.6744
rhand 15.283 -51.0437
rfingers 7.12502
rthumb 40.118 -436.234
lclavicle -1.05853e-014 3.18055e-015
lhumerus -28.2547 -20.3008 98.6066
lradius 121.448
lwrist -22.4049
lhand 43.8751 -0.922619
lfingers 7.12502
lthumb 65.5189 5.36594
rfemur 10.8695 2.68392 19.9231
rtibia 2.22639e-014
rfoot -17.7624 -11.27
rtoes -15.1363
lfemur -3.65483 -2.94149 -8.49127
ltibia 27.6334
lfoot -24.8874 9.69594
ltoes -57.8478
491
root -0.619197 18.5718 6.98912 1.50669 -2.71318 -6.2414
lowerback 5.12312 0.853347 2.33343
upperback -4.54285 1.37867 0.47631
thorax -7.59421 0.564934 -0.968455
lowerneck -12.8408 0.203784 4.05777
upperneck 14.5359 -0.751171 1.31724
head 6.54012 -0.0260906 -0.311714
rclavicle 3.47873e-015 -4.77083e-015
rhumerus -38.1337 10.088 -91.7692
rradius 119.915
rwrist 18.0746
rhand 14.5947 -51.1528
rfingers 7.12502
rthumb 39.47 -436.537
lclavicle 3.47873e-015 -4.77083e-015
lhumerus -28.0413 -20.2209 98.6337
lradius 121.337
lwrist -22.3645
lhand 43.7726 -0.906017
lfingers 7.12502
lthumb 65.4389 5.52287
rfemur 10.8678 2.48397 19.8699
rtibia 0
rfoot -17.7679 -11.2121
rtoes -14.9846
lfemur -3.75386 -3.20639 -8.54249
ltibia 27.6728
lfoot -24.9594 9.71256
ltoes -57.7245
492
root -0.612555 18.5698 6.98382 1.47432 -2.4937 -6.28973
lowerback 4.527 0.900697 2.28297
upperback -4.15343 1.4245 0.675365
thorax -6.83601 0.608502 -0.721884
lowerneck -13.2101 0.98022 4.74956
upperneck 14.2898 0.264737 0.647801
head 6.54079 0.442827 -0.543024
rclavicle 1.10822e-014 7.95139e-016
rhumerus -37.027 10.6111 -91.3454
rradius 119.654
rwrist 17.7393
rhand 14.0882 -51.1131
rfingers 7.12502
rthumb 38.9927 -436.635
lclavicle 1.10822e-014 7.95139e-016
lhumerus -27.1143 -20.086 98.4361
lradius 121.186
lwrist -22.2321
lhand 43.7367 -0.840446
lfingers 7.12502
lthumb 65.4108 5.63738
rfemur 10.901 2.27207 19.8936
rtibia -4.77083e-015
rfoot -17.7937 -11.156
rtoes -14.8341
lfemur -3.81818 -3.41819 -8.49993
ltibia 27.6933
lfoot -24.955 9.65328
ltoes -57.6493
493
root -0.605454 18.5682 6.97818 1.43897 -2.28163 -6.34472
lowerback 4.53595 0.987089 2.52415
upperback -4.19167 1.55913 0.659502
thorax -6.87226 0.661849 -0.887737
lowerneck -13.2873 1.62442 5.40429
upperneck 14.3171 1.06481 0.282908
head 6.58656 0.834917 -0.689797
rclavicle -9.0944e-015 -1.35174e-014
rhumerus -37.0911 10.1721 -91.5763
rradius 119.838
rwrist 17.9835
rhand 14.0497 -50.7719
rfingers 7.12502
rthumb 38.9564 -436.304
lclavicle -9.0944e-015 -1.35174e-014
lhumerus -27.0283 -20.1684 98.3368
lradius 121.206
lwrist -22.1469
lhand 43.826 -0.726236
lfingers 7.12502
lthumb 65.4806 5.62964
rfemur 10.9319 2.06782 19.923
rtibia -1.59028e-014
rfoot -17.8489 -11.0915
rtoes -14.5216
lfemur -3.87503 -3.59421 -8.45135
ltibia 27.7142
lfoot -24.9544 9.58813
ltoes -57.5755
494
root -0.597849 18.5677 6.97167 1.42938 -2.08124 -6.3501
lowerback 5.09992 1.13902 2.90141
upperback -4.63818 1.81452 0.501242
thorax -7.65489 0.747261 -1.31054
lowerneck -13.1868 2.10117 5.93811
upperneck 14.6315 1.63789 0.109293
head 6.6933 1.13257 -0.776782
rclavicle -6.4605e-016 1.59028e-015
rhumerus -37.9329 9.42181 -91.9637
rradius 120.148
rwrist 18.3863
rhand 14.3725 -50.7266
rfingers 7.12502
rthumb 39.2607 -436.171
lclavicle -6.4605e-016 1.59028e-015
lhumerus -27.6953 -20.4604 98.4836
lradius 121.274
lwrist -22.1774
lhand 43.9638 -0.725586
lfingers 7.12502
lthumb 65.5881 5.4408
rfemur 10.9313 1.87488 19.8938
rtibia -4.77083e-015
rfoot -17.8661 -11.0526
rtoes -14.4232
lfemur -3.9571 -3.76911 -8.47098
ltibia 27.7269
lfoot -24.9734 9.59161
ltoes -57.5662
495
root -0.592037 18.5672 6.96461 1.38175 -1.84767 -6.29358
lowerback 5.35158 1.2344 3.11181
upperback -4.83293 1.96629 0.364404
thorax -7.99487 0.797478 -1.59932
lowerneck -13.2515 2.59118 6.4503
upperneck 14.8125 2.22237 -0.0532025
head 6.78999 1.43296 -0.853194
rclavicle 5.91384e-015 -3.97569e-015
rhumerus -38.072 9.82201 -91.8174
rradius 120.172
rwrist 18.166
rhand 14.423 -51.1408
rfingers 7.12502
rthumb 39.3082 -436.572
lclavicle 5.91384e-015 -3.97569e-015
lhumerus -27.9468 -20.6639 98.4285
lradius 121.271
lwrist -22.2676
lhand 44.1153 -0.806765
lfingers 7.12502
lthumb 65.7059 5.1492
rfemur 10.981 1.64741 19.8041
rtibia -2.06736e-014
rfoot -17.8556 -11.0245
rtoes -14.6988
lfemur -4.01032 -3.93888 -8.55225
ltibia 27.7281
lfoot -24.9444 9.59707
ltoes -57.6398
496
root -0.589487 18.565 6.95869 1.28047 -1.58086 -6.23784
lowerback 5.52777 1.28445 3.14718
upperback -4.92144 2.04343 0.326437
thorax -8.18775 0.82728 -1.67493
lowerneck -13.2634 3.09561 6.93179
upperneck 14.8776 2.84121 -0.232581
head 6.84522 1.74417 -0.926176
rclavicle 1.39149e-014 7.95139e-016
rhumerus -38.1693 9.81145 -91.8598
rradius 120.236
rwrist 18.1552
rhand 14.5109 -51.0635
rfingers 7.12502
rthumb 39.3911 -436.47
lclavicle 1.39149e-014 7.95139e-016
lhumerus -28.086 -20.6596 98.456
lradius 121.29
lwrist -22.3102
lhand 44.2327 -0.808094
lfingers 7.12502
lthumb 65.797 4.98346
rfemur 11.105 1.38548 19.7301
rtibia -1.59028e-014
rfoot -17.8948 -10.9434
rtoes -14.7916
lfemur -4.00579 -4.10146 -8.61028
ltibia 27.7223
lfoot -24.878 9.52511
ltoes -57.7193
497
root -0.589685 18.5629 6.95361 1.1882 -1.29645 -6.21733
lowerback 5.42609 1.32461 3.08052
upperback -4.82305 2.09066 0.406559
thorax -8.02427 0.861224 -1.55428
lowerneck -13.3663 3.54583 7.15506
upperneck 14.8237 3.42077 -0.344783
head 6.87337 2.02475 -0.938007
rclavicle -9.24349e-015 4.77083e-015
rhumerus -38.0897 9.00977 -92.1442
rradius 120.412
rwrist 18.5912
rhand 14.9422 -50.7963
rfingers 7.12502
rthumb 39.7972 -436.083
lclavicle -9.24349e-015 4.77083e-015
lhumerus -27.878 -20.5114 98.5914
lradius 121.258
lwrist -22.3219
lhand 44.3071 -0.755091
lfingers 7.12502
lthumb 65.8546 4.93162
rfemur 11.2335 1.10513 19.7048
rtibia 2.06736e-014
rfoot -17.9703 -10.8562
rtoes -14.8188
lfemur -4.01188 -4.19152 -8.59667
ltibia 27.7152
lfoot -24.7934 9.34519
ltoes -57.7876
498
root -0.589601 18.5628 6.94981 1.14289 -1.01971 -6.23383
lowerback 5.64732 1.34381 3.14838
upperback -4.96968 2.13558 0.404409
thorax -8.30863 0.87215 -1.60917
lowerneck -13.3684 3.87253 7.41998
upperneck 14.9181 3.82752 -0.438191
head 6.92809 2.2293 -0.967943
rclavicle 1.04859e-014 -3.97569e-015
rhumerus -38.2963 9.5398 -91.9382
rradius 120.734
rwrist 18.2883
rhand 14.7029 -51.2101
rfingers 7.12502
rthumb 39.5719 -436.564
lclavicle 1.04859e-014 -3.97569e-015
lhumerus -28.0306 -20.4279 98.6661
lradius 121.236
lwrist -22.3235
lhand 44.3803 -0.653742
lfingers 7.12502
lthumb 65.9112 4.92925
rfemur 11.3108 0.832743 19.717
rtibia 0
rfoot -18.0352 -10.8043
rtoes -14.973
lfemur -4.06345 -4.24993 -8.54057
ltibia 27.7156
lfoot -24.7099 9.18373
ltoes -57.8886
499
root -0.588563 18.5631 6.94741 1.1242 -0.778313 -6.29293
lowerback 5.44672 1.39439 3.21275
upperback -4.88736 2.20195 0.441661
thorax -8.09791 0.907352 -1.60629
lowerneck -13.3938 4.13056 7.79345
upperneck 14.7171 4.16193 -0.789872
head 6.89683 2.37639 -1.10748
rclavicle 1.61016e-014 1.51076e-014
rhumerus -37.8093 9.80128 -91.7031
rradius 120.383
rwrist 18.1515
rhand 14.5501 -51.1962
rfingers 7.12502
rthumb 39.428 -436.592
lclavicle 1.61016e-014 1.51076e-014
lhumerus -27.774 -20.4779 98.6037
lradius 121.175
lwrist -22.3105
lhand 44.3987 -0.588885
lfingers 7.12502
lthumb 65.9254 4.96792
rfemur 11.349 0.596074 19.7727
rtibia -7.95139e-015
rfoot -18.0767 -10.774
rtoes -15.0209
lfemur -4.12563 -4.3206 -8.44976
ltibia 27.7176
lfoot -24.6588 9.05298
ltoes -57.9597
500
root -0.588633 18.5627 6.94568 1.10988 -0.557287 -6.34663
lowerback 5.40628 1.44449 3.26349
upperback -4.91665 2.27533 0.471174
thorax -8.10187 0.941089 -1.61155
lowerneck -13.4003 4.34247 8.05784
upperneck 14.6352 4.43492 -1.01496
head 6.89503 2.50132 -1.19424
rclavicle 9.83984e-015 8.74653e-015
rhumerus -37.9956 9.55778 -91.769
rradius 120.53
rwrist 18.343
rhand 14.7849 -51.0158
rfingers 7.12502
rthumb 39.6491 -436.347
lclavicle 9.83984e-015 8.74653e-015
lhumerus -27.7258 -20.5306 98.6092
lradius 121.174
lwrist -22.3212
lhand 44.3226 -0.635463
lfingers 7.12502
lthumb 65.8666 5.02923
rfemur 11.3825 0.379588 19.8228
rtibia -7.95139e-015
rfoot -18.14 -10.723
rtoes -14.8116
lfemur -4.17421 -4.41991 -8.36964
ltibia 27.715
lfoot -24.6236 8.96487
ltoes -58.0081
501
root -0.589879 18.5621 6.94373 1.09465 -0.344247 -6.35035
lowerback 5.67319 1.47276 3.2876
upperback -5.12394 2.33212 0.458467
thorax -8.47953 0.95705 -1.65793
lowerneck -13.4145 4.50431 8.0943
upperneck 14.7741 4.6341 -0.939055
head 6.95142 2.60858 -1.15303
rclavicle -5.66536e-015 1.90833e-014
rhumerus -38.4516 9.3964 -91.9488
rradius 120.728
rwrist 18.5124
rhand 14.8838 -50.9021
rfingers 7.12502
rthumb 39.7423 -436.205
lclavicle -5.66536e-015 1.90833e-014
lhumerus -28.0205 -20.5448 98.6787
lradius 121.21
lwrist -22.3293
lhand 44.2842 -0.663725
lfingers 7.12502
lthumb 65.8369 5.05525
rfemur 11.4201 0.171122 19.8147
rtibia -3.49861e-014
rfoot -18.2183 -10.6245
rtoes -14.5515
lfemur -4.21651 -4.57353 -8.34903
ltibia 27.715
lfoot -24.6196 8.89723
ltoes -57.9864
502
root -0.591467 18.5609 6.9414 1.07223 -0.140196 -6.34427
lowerback 5.82239 1.50596 3.31819
upperback -5.24191 2.3871 0.425071
thorax -8.69073 0.975148 -1.72454
lowerneck -13.5183 4.61283 8.06159
upperneck 14.8979 4.75824 -0.817596
head 7.01178 2.67909 -1.09207
rclavicle 1.69961e-014 7.95139e-015
rhumerus -38.5682 9.41725 -92.0025
rradius 120.766
rwrist 18.4834
rhand 14.8168 -50.9174
rfingers 7.12502
rthumb 39.6792 -436.239
lclavicle 1.69961e-014 7.95139e-015
lhumerus -28.1786 -20.5991 98.7055
lradius 121.237
lwrist -22.3229
lhand 44.3205 -0.626781
lfingers 7.12502
lthumb 65.8649 5.04095
rfemur 11.4664 -0.0290376 19.8007
rtibia -2.54444e-014
rfoot -18.2543 -10.5398
rtoes -14.5785
lfemur -4.2598 -4.70958 -8.33139
ltibia 27.7179
lfoot -24.6427 8.75253
ltoes -57.8296
503
root -0.593703 18.56 6.94028 1.05887 0.0654777 -6.40011
lowerback 5.8472 1.52705 3.28451
upperback -5.29627 2.41904 0.47626
thorax -8.76652 0.992633 -1.65759
lowerneck -13.569 4.71138 8.11911
upperneck 14.9365 4.89319 -0.914944
head 7.04306 2.73916 -1.11693
rclavicle -3.61788e-014 -2.06736e-014
rhumerus -38.6814 9.38807 -92.0375
rradius 120.796
rwrist 18.477
rhand 14.7499 -50.856
rfingers 7.12502
rthumb 39.6162 -436.197
lclavicle -3.61788e-014 -2.06736e-014
lhumerus -28.1729 -20.5941 98.7512
lradius 121.249
lwrist -22.2714
lhand 44.3576 -0.563542
lfingers 7.12502
lthumb 65.8936 5.05164
rfemur 11.5059 -0.232299 19.8685
rtibia 1.90833e-014
rfoot -18.2708 -10.5073
rtoes -14.7783
lfemur -4.31559 -4.80167 -8.2384
ltibia 27.7212
lfoot -24.6107 8.64143
ltoes -57.7987
504
root -0.596784 18.5608 6.94014 1.05477 0.281479 -6.47532
lowerback 4.86957 1.53374 2.86197
upperback -4.70425 2.35885 0.842894
thorax -7.58482 1.02898 -0.985424
lowerneck -13.7981 4.90313 8.0385
upperneck 14.3894 5.2336 -1.40757
head 6.92894 2.84324 -1.22712
rclavicle -2.44008e-014 -1.51076e-014
rhumerus -36.9594 10.5496 -91.062
rradius 120.31
rwrist 17.8863
rhand 14.5737 -51.4849
rfingers 7.12502
rthumb 39.4503 -436.874
lclavicle -2.44008e-014 -1.51076e-014
lhumerus -26.9671 -20.4057 98.7363
lradius 121.085
lwrist -22.1931
lhand 44.3678 -0.507763
lfingers 7.12502
lthumb 65.9016 5.09289
rfemur 11.5343 -0.44626 19.9611
rtibia 2.38542e-014
rfoot -18.2829 -10.5136
rtoes -15.0344
lfemur -4.37812 -4.96324 -8.13238
ltibia 27.7256
lfoot -24.5834 8.58649
ltoes -57.826
